<?xml version="1.0" encoding="UTF-8"?>
<svg id="Warstwa_2" data-name="Warstwa 2" xmlns="http://www.w3.org/2000/svg" viewBox="0 0 184.13 27.3">
  <defs>
    <style>
      .cls-1 {
        fill: #111;
      }

      .cls-2 {
        fill: #fa7e19;
      }
    </style>
  </defs>
  <g id="Warstwa_1-2" data-name="Warstwa 1">
    <path class="cls-2" d="M35.63,12.7L29.03.9C28.73.3,28.13,0,27.43,0h-6.9C19.63,0,18.93.5,18.43,1.3l-7.1,18.9-3.8-6.6L13.93,2.5c.3-.5.3-1.1,0-1.6s-.9-.9-1.6-.9h-3.9c-.7,0-1.3.3-1.6.9L.23,12.7c-.3.6-.3,1.3,0,1.9l6.6,11.8c.3.6.9.9,1.6.9h6.9c.9,0,1.6-.5,2.1-1.3l7.1-18.9,3.8,6.6-6.4,11.1c-.3.5-.3,1.1,0,1.6s.9.9,1.6.9h3.9c.7,0,1.3-.3,1.6-.9l6.6-11.8c.4-.6.4-1.3,0-1.9Z"/>
    <g>
      <path class="cls-1" d="M56.47,8.57c.22-.12.5-.22.86-.31.36-.08.73-.13,1.12-.13.6,0,1.11.1,1.53.29.42.19.68.48.77.86.55,1.61,1.04,3.1,1.48,4.48.43,1.38.85,2.71,1.26,4,.41,1.28.82,2.62,1.22,4.01h.14c.41-2.11.8-4.16,1.19-6.14.38-1.98.75-3.97,1.1-5.98.35-2,.67-4.11.95-6.32.5-.26,1.06-.4,1.66-.4.55,0,1.01.13,1.37.38.36.25.54.64.54,1.17,0,.48-.06,1.19-.18,2.12s-.29,2.02-.5,3.24c-.22,1.22-.47,2.52-.76,3.89s-.59,2.72-.9,4.05c-.31,1.33-.63,2.58-.95,3.74s-.63,2.15-.92,2.97c-.26.17-.62.32-1.08.45s-.95.2-1.48.2c-.67,0-1.25-.1-1.73-.31-.48-.2-.78-.47-.9-.81-.31-.79-.68-1.81-1.1-3.04s-.85-2.59-1.3-4.05-.88-2.94-1.31-4.43c-.38,1.46-.8,2.96-1.26,4.48-.46,1.52-.9,2.95-1.33,4.27-.43,1.32-.82,2.4-1.15,3.24-.22.17-.54.32-.97.45-.43.13-.92.2-1.48.2-.65,0-1.22-.11-1.71-.32s-.81-.48-.95-.79c-.24-.6-.53-1.48-.88-2.65-.35-1.16-.71-2.51-1.08-4.03s-.73-3.1-1.08-4.73c-.35-1.63-.67-3.22-.97-4.75-.3-1.54-.55-2.9-.74-4.1.22-.19.51-.38.88-.56.37-.18.77-.27,1.21-.27.55,0,.99.13,1.31.38s.53.68.63,1.28c.34,1.75.64,3.36.92,4.82.28,1.46.55,2.87.81,4.21.26,1.34.53,2.68.81,4,.28,1.32.57,2.7.88,4.14h.18c.29-1.06.58-2.06.86-3.01.29-.95.58-1.91.88-2.9s.62-2.06.97-3.24c.35-1.18.74-2.53,1.17-4.07Z"/>
      <path class="cls-1" d="M76.81,18.65l-.18-2.7,10.22-1.44c-.07-1.1-.47-2.04-1.19-2.81-.72-.77-1.74-1.15-3.06-1.15s-2.46.48-3.35,1.44c-.89.96-1.34,2.33-1.37,4.1l.07,1.37c.19,1.7.8,2.98,1.84,3.83,1.03.85,2.39,1.28,4.07,1.28,1.01,0,1.93-.16,2.77-.47.84-.31,1.51-.65,2.02-1.01.29.17.52.4.7.68.18.29.27.6.27.94,0,.53-.26,1.01-.79,1.44-.53.43-1.24.77-2.14,1.01-.9.24-1.91.36-3.04.36-1.85,0-3.47-.34-4.88-1.03-1.4-.68-2.49-1.7-3.26-3.06-.77-1.36-1.15-3.02-1.15-4.99,0-1.42.22-2.67.65-3.76.43-1.09,1.02-2.01,1.76-2.75.74-.74,1.62-1.31,2.63-1.69,1.01-.38,2.09-.58,3.24-.58,1.51,0,2.85.32,4.01.95,1.16.64,2.07,1.52,2.72,2.65.65,1.13.97,2.41.97,3.85,0,.6-.14,1.04-.43,1.33s-.7.46-1.22.5l-11.88,1.69Z"/>
      <path class="cls-1" d="M98.02,10.69h-3.71V1.66c.17-.05.41-.11.72-.18.31-.07.65-.11,1.01-.11.67,0,1.17.13,1.49.4.32.26.49.71.49,1.33v7.6ZM102.23,7.67c1.51,0,2.88.33,4.1.99s2.18,1.64,2.88,2.95c.7,1.31,1.04,2.96,1.04,4.95s-.37,3.68-1.1,5c-.73,1.32-1.75,2.31-3.04,2.97-1.3.66-2.82.99-4.57.99-1.27,0-2.4-.16-3.38-.47-.98-.31-1.8-.66-2.45-1.04-.5-.36-.86-.71-1.08-1.04s-.32-.77-.32-1.3v-11.77h3.71v11.66c.34.22.81.43,1.42.65.61.22,1.31.32,2.11.32,1.49,0,2.69-.49,3.6-1.46.91-.97,1.37-2.48,1.37-4.52s-.46-3.53-1.37-4.48c-.91-.95-2.09-1.42-3.53-1.42-.89,0-1.68.17-2.38.52s-1.27.74-1.73,1.17l-.43-2.99c.55-.38,1.25-.76,2.11-1.13.85-.37,1.87-.56,3.04-.56Z"/>
      <path class="cls-1" d="M132.25,20.36c-.96,1.72-2.31,2.99-4.05,3.83-1.74.84-3.79,1.26-6.14,1.26-.77,0-1.67-.04-2.7-.11-1.03-.07-1.99-.25-2.88-.54-1.08-.36-1.62-1-1.62-1.91V4.82c0-.41.11-.73.34-.95.23-.23.53-.4.92-.52.82-.26,1.72-.44,2.72-.52s1.96-.13,2.9-.13c2.38,0,4.46.41,6.25,1.24,1.79.83,3.19,2.06,4.19,3.71,1.01,1.64,1.51,3.73,1.51,6.25s-.48,4.75-1.44,6.46ZM128.76,9.27c-.72-1.19-1.68-2.06-2.88-2.63-1.2-.56-2.56-.85-4.07-.85-.65,0-1.23.02-1.75.07-.52.05-1,.11-1.46.18v15.98c.5.12,1.06.2,1.66.25s1.2.07,1.8.07c2.5,0,4.42-.71,5.76-2.14,1.34-1.43,2.02-3.52,2.02-6.28,0-1.92-.36-3.47-1.08-4.66Z"/>
      <path class="cls-1" d="M142.26,15.01h-3.78V3.17c.17-.05.41-.1.74-.16.32-.06.67-.09,1.03-.09.7,0,1.21.13,1.53.38s.49.71.49,1.39v10.33ZM138.48,11.12h3.78v13.86c-.17.05-.41.11-.72.18-.31.07-.65.11-1.01.11-.72,0-1.24-.14-1.57-.41-.32-.28-.49-.73-.49-1.35v-12.38ZM144.85,15.01l-4.28-.32,11.02-11.7c.86.02,1.5.22,1.91.59.41.37.61.8.61,1.28,0,.41-.1.78-.29,1.12-.19.34-.5.71-.94,1.12l-8.03,7.92ZM141,13.71l3.53-1.19c2.38,2.33,4.44,4.42,6.19,6.26,1.75,1.85,3.22,3.32,4.39,4.43-.02.65-.23,1.16-.61,1.53s-.85.56-1.4.56-1.06-.15-1.46-.45c-.4-.3-.79-.65-1.17-1.06l-9.47-10.08Z"/>
      <path class="cls-1" d="M168.94,8.57c.22-.12.5-.22.86-.31.36-.08.73-.13,1.12-.13.6,0,1.11.1,1.53.29.42.19.68.48.77.86.55,1.61,1.04,3.1,1.48,4.48.43,1.38.85,2.71,1.26,4,.41,1.28.82,2.62,1.22,4.01h.14c.41-2.11.8-4.16,1.19-6.14.38-1.98.75-3.97,1.1-5.98.35-2,.67-4.11.95-6.32.5-.26,1.06-.4,1.66-.4.55,0,1.01.13,1.37.38.36.25.54.64.54,1.17,0,.48-.06,1.19-.18,2.12s-.29,2.02-.5,3.24c-.22,1.22-.47,2.52-.76,3.89s-.59,2.72-.9,4.05c-.31,1.33-.63,2.58-.95,3.74s-.63,2.15-.92,2.97c-.26.17-.62.32-1.08.45s-.95.2-1.48.2c-.67,0-1.25-.1-1.73-.31-.48-.2-.78-.47-.9-.81-.31-.79-.68-1.81-1.1-3.04s-.85-2.59-1.3-4.05-.88-2.94-1.31-4.43c-.38,1.46-.8,2.96-1.26,4.48-.46,1.52-.9,2.95-1.33,4.27-.43,1.32-.82,2.4-1.15,3.24-.22.17-.54.32-.97.45-.43.13-.92.2-1.48.2-.65,0-1.22-.11-1.71-.32s-.81-.48-.95-.79c-.24-.6-.53-1.48-.88-2.65-.35-1.16-.71-2.51-1.08-4.03s-.73-3.1-1.08-4.73c-.35-1.63-.67-3.22-.97-4.75-.3-1.54-.55-2.9-.74-4.1.22-.19.51-.38.88-.56.37-.18.77-.27,1.21-.27.55,0,.99.13,1.31.38s.53.68.63,1.28c.34,1.75.64,3.36.92,4.82.28,1.46.55,2.87.81,4.21.26,1.34.53,2.68.81,4,.28,1.32.57,2.7.88,4.14h.18c.29-1.06.58-2.06.86-3.01.29-.95.58-1.91.88-2.9s.62-2.06.97-3.24c.35-1.18.74-2.53,1.17-4.07Z"/>
    </g>
  </g>
</svg>